<svg width="14" height="167" viewBox="0 0 14 167" fill="none" xmlns="http://www.w3.org/2000/svg">
<path fill-rule="evenodd" clip-rule="evenodd" d="M4.5828 0.401654C4.32444 0.80025 4.28181 0.81339 3.83507 0.632304C2.96811 0.281032 2.6837 0.36284 2.47399 1.02433C2.23427 1.78092 2.49689 3.02105 3.04912 3.73927C3.2582 4.01127 3.71458 4.63678 4.0631 5.12943L4.69697 6.02515L4.69539 11.6981L4.69381 17.371L4.03341 16.1767C3.53787 15.2805 3.00711 14.6345 1.90723 13.5888C1.10107 12.8223 0.352234 12.2231 0.243272 12.257C-0.0676646 12.354 -0.0839296 14.0834 0.214058 15.3499C0.720336 17.5013 1.75279 19.1585 3.58698 20.764L4.7036 21.7414V24.3706V167H5.09839H5.49318V22.0979V17.1959L6.82599 16.5715C8.93891 15.5818 10.5624 13.9389 11.3868 11.9563C11.7759 11.0206 11.743 10.8237 11.2176 10.9446C10.281 11.1602 8.47368 12.1343 7.55951 12.9164C7.03096 13.3686 6.59875 13.6825 6.59907 13.614C6.5997 13.3838 7.73401 11.7064 8.52375 10.7674C9.58273 9.50802 10.1327 9.14466 10.6453 9.3656C11.4288 9.70299 12.5711 9.49056 13.5074 8.83339C14.1228 8.40151 14.1618 8.01306 13.6232 7.6794C13.3004 7.47936 13.2558 7.37993 13.3863 7.14958C13.6473 6.68844 13.5748 6.54766 13.0761 6.54766C12.7079 6.54766 12.5842 6.46779 12.508 6.18056C12.3511 5.58968 12.0614 5.4492 11.533 5.70747C10.4751 6.2246 9.52477 7.70105 9.80507 8.39165C9.85324 8.51034 9.60878 8.81623 9.22047 9.12316C8.34751 9.81301 6.94459 11.5634 6.13969 12.967L5.49761 14.0867L5.49539 10.069L5.49318 6.05128L5.99836 5.29185C6.27613 4.874 6.70061 4.31358 6.94159 4.0465C7.91498 2.96701 8.13338 0.569751 7.26879 0.453755C7.07281 0.42748 6.68829 0.51168 6.41415 0.640963C6.14001 0.770245 5.90566 0.858921 5.8935 0.838021C5.32958 -0.128017 4.99796 -0.23849 4.5828 0.401654ZM5.66152 1.57625C5.89034 2.23162 5.77743 3.28275 5.42339 3.79361C5.07929 4.29014 4.81667 4.10338 4.53858 3.16481C4.37529 2.61319 4.37293 2.33776 4.52721 1.79256C4.87494 0.563481 5.28079 0.486003 5.66152 1.57625ZM3.75042 1.17048C3.9933 1.29335 4.01825 1.40725 3.90581 1.88034C3.78327 2.39613 3.83317 2.77816 4.16495 3.86049L4.27944 4.23371L3.91655 3.93513C3.38453 3.49742 2.97395 2.54243 2.97 1.73315C2.96637 0.982531 3.13644 0.859817 3.75042 1.17048ZM7.22678 1.73315C7.22283 2.54243 6.81225 3.49742 6.28024 3.93513L5.91735 4.23371L6.03184 3.86049C6.3633 2.77905 6.41351 2.39598 6.29129 1.88184C6.14964 1.28558 6.34151 1.03866 6.9539 1.02851C7.17941 1.02493 7.22962 1.15436 7.22678 1.73315ZM11.9677 6.1622C11.9677 6.19653 12.0108 6.33089 12.0636 6.46077C12.1268 6.61663 12.072 6.69694 11.9022 6.69694C11.7607 6.69694 11.3241 6.97641 10.932 7.31813C10.2403 7.92095 10.2243 7.92647 10.3925 7.50474C10.5969 6.99253 11.467 6.0998 11.7618 6.0998C11.875 6.0998 11.9677 6.12786 11.9677 6.1622ZM12.9152 7.13988C12.9152 7.42815 11.816 8.31402 11.3342 8.4142C10.6788 8.5502 10.58 8.42017 10.9631 7.92617C11.4586 7.28708 12.9152 6.70038 12.9152 7.13988ZM13.3754 8.09965C13.5218 8.2664 13.4531 8.36956 13.0321 8.61558C12.5275 8.91028 11.1782 9.21706 11.1782 9.03702C11.1782 8.98925 11.4802 8.82369 11.8493 8.66888C12.2183 8.51422 12.618 8.27596 12.7371 8.13951C13.0014 7.83675 13.1371 7.82839 13.3754 8.09965ZM10.8623 11.7891C10.8623 12.1907 9.78912 13.8014 9.0455 14.5157C8.31387 15.2184 6.98107 16.102 6.6526 16.102C6.5828 16.102 7.1952 15.4667 8.01336 14.6899C9.238 13.5274 9.45119 13.2599 9.22016 13.176C9.00744 13.099 8.59781 13.3956 7.53204 14.3984C6.75809 15.1267 6.12485 15.6531 6.12485 15.5683C6.12485 15.2657 7.07534 14.0043 7.79386 13.3535C8.1956 12.9894 8.99718 12.4533 9.57499 12.1619C10.724 11.5824 10.8623 11.5424 10.8623 11.7891ZM2.18469 14.6483C2.66665 15.1875 3.28947 16.0714 3.56851 16.6126C4.03594 17.5188 4.54932 19.1506 4.53511 19.6849C4.53179 19.8081 3.99946 18.918 3.352 17.7069C2.70455 16.4957 2.1021 15.5049 2.01303 15.5049C1.59377 15.5049 1.76321 16.0702 2.72792 17.8902C3.30258 18.9745 3.74774 19.9326 3.7171 20.0195C3.63862 20.2421 2.27565 18.5841 1.70115 17.5671C1.15792 16.6053 0.597792 14.7037 0.597792 13.8206C0.597792 13.2418 0.605372 13.2338 0.953102 13.4486C1.1486 13.5692 1.70273 14.1092 2.18469 14.6483Z" fill="black"/>
</svg>
