<svg width="18" height="85" viewBox="0 0 18 85" fill="none" xmlns="http://www.w3.org/2000/svg">
<path fill-rule="evenodd" clip-rule="evenodd" d="M13.3848 0.856932C13.8742 1.70734 13.9549 1.73538 14.8011 1.34903C16.4432 0.599584 16.9819 0.774122 17.3792 2.18542C17.8332 3.79961 17.3358 6.44544 16.2898 7.97777C15.8938 8.55809 15.0294 9.89262 14.3692 10.9437L13.1686 12.8547C13.1769 46.4335 13.156 45.1778 13.156 85L12.4082 85L11.6605 85L11.6605 47.146L11.6605 36.6876L9.13598 35.3556C5.13388 33.2439 2.05872 29.7387 0.497368 25.509C-0.239639 23.5126 -0.177422 23.0925 0.817718 23.3504C2.59174 23.8104 6.01506 25.8886 7.74661 27.5573C9.07505 28.8375 10.5476 30 11.6521 32.054L11.6563 21.4824L11.6605 12.9105L10.7036 11.2902C10.1775 10.3987 9.37347 9.20306 8.91703 8.63325C7.07332 6.33014 6.65965 1.21557 8.29728 0.96809C8.66847 0.912033 9.3968 1.09167 9.91606 1.3675C10.4353 1.64333 10.8792 1.83252 10.9022 1.78793C11.9703 -0.273125 12.5985 -0.508821 13.3848 0.856932ZM11.7927 8.0937C11.1221 7.00378 10.9082 4.76118 11.3416 3.36294C12.0628 1.03689 12.8315 1.20219 13.4901 3.82445C13.7824 4.98763 13.7779 5.57528 13.4686 6.75216C12.9419 8.7546 12.4444 9.15305 11.7927 8.0937ZM14.6671 4.01173C14.4542 3.00239 14.5014 2.75937 14.9615 2.49724C16.1244 1.83443 16.4465 2.09624 16.4397 3.69769C16.4322 5.42431 15.6545 7.46179 14.6468 8.39565L13.9594 9.03266L14.1763 8.23639C14.8047 5.92723 14.8992 5.11217 14.6671 4.01173ZM10.1697 8.39565C9.162 7.46179 8.38432 5.42431 8.37684 3.69769C8.37145 2.46284 8.46657 2.18669 8.8937 2.19434C10.0537 2.216 10.4171 2.74281 10.1488 4.01492C9.91726 5.11185 10.0124 5.92914 10.6402 8.23639L10.8571 9.03266L10.1697 8.39565ZM4.93198 30.9694C3.52347 29.4454 1.49072 26.009 1.49072 25.1522C1.49072 24.6257 1.75274 24.7111 3.92907 25.9475C5.02351 26.5693 6.54179 27.713 7.30273 28.4899C8.66368 29.8782 10.464 32.5696 10.464 33.2152C10.464 33.3961 9.26459 32.2731 7.79865 30.7191C5.77996 28.5797 5.00406 27.9468 4.60116 28.1112C4.16356 28.2902 4.56736 28.8609 6.88696 31.3411C8.43665 32.9983 9.5966 34.3539 9.4644 34.3539C8.84225 34.3539 6.31776 32.4686 4.93198 30.9694Z" fill="#383838"/>
</svg>
